<?xml version="1.0" encoding="UTF-8" standalone="no"?>
<svg
   data-name="Layer 1"
   width="1008.9204"
   height="607.45001"
   viewBox="0 0 1008.9204 607.45001"
   version="1.1"
   id="svg144"
   sodipodi:docname="undraw_video_files_fu10.svg"
   inkscape:export-filename="undraw_video_files_fu10.png"
   inkscape:export-xdpi="96"
   inkscape:export-ydpi="96"
   xmlns:inkscape="http://www.inkscape.org/namespaces/inkscape"
   xmlns:sodipodi="http://sodipodi.sourceforge.net/DTD/sodipodi-0.dtd"
   xmlns="http://www.w3.org/2000/svg"
   xmlns:svg="http://www.w3.org/2000/svg">
  <defs
     id="defs148" />
  <sodipodi:namedview
     id="namedview146"
     pagecolor="#505050"
     bordercolor="#ffffff"
     borderopacity="1"
     inkscape:showpageshadow="0"
     inkscape:pageopacity="0"
     inkscape:pagecheckerboard="1"
     inkscape:deskcolor="#505050"
     showgrid="false" />
  <path
     d="m 1008.9202,474.03 a 15.34,15.34 0 0 1 -15.25959,15.42 h -671.4004 a 15.34,15.34 0 0 1 -15.26,-15.41962 V 15.42 A 15.34,15.34 0 0 1 322.25978,0 h 671.40043 a 15.34,15.34 0 0 1 15.25999,15.41959 v 4.3e-4 z"
     fill="#e6e6e6"
     id="path99"
     style="fill:#51e58d;fill-opacity:1" />
  <path
     d="m 1001.0002,466.52 a 14.91,14.91 0 0 1 -14.90999,14.91 h -655.8 a 14.91,14.91 0 0 1 -14.91,-14.91 V 23.14 a 14.91,14.91 0 0 1 14.91,-14.91 h 655.83 a 14.91,14.91 0 0 1 14.87999,14.91 z"
     fill="#ffffff"
     id="path101"
     style="display:inline" />
  <path
     id="b9c54412-061c-4155-b289-fb4c23e4a64e-68"
     data-name="c6fe725a-3b03-4a96-90af-cfbd2676500a"
     d="m 350.4302,27.47999 h 616.22 a 8.85,8.85 0 0 1 8.85,8.85 v 415.28 a 8.85,8.85 0 0 1 -8.85,8.85 h -616.22 a 8.85,8.85 0 0 1 -8.85,-8.85 v -415.28 a 8.85,8.85 0 0 1 8.85,-8.85 z"
     fill="#e6e6e6"
     style="display:inline;fill:#51e58d;fill-opacity:0.894679" />
  <path
     d="m 358.2302,37.43999 h 599.95 a 8.85,8.85 0 0 1 8.85,8.85 v 393.12 a 8.85,8.85 0 0 1 -8.85,8.85 h -599.95 a 8.85,8.85 0 0 1 -8.85,-8.85 v -393.12 a 8.85,8.85 0 0 1 8.85,-8.85 z"
     fill="#ffffff"
     id="path104"
     style="display:inline" />
  <circle
     cx="900.87946"
     cy="386.81369"
     r="36.16732"
     fill="#e6e6e6"
     id="circle110"
     style="fill:#51e58d;fill-opacity:0.411765" />
  <path
     d="m 919.66471,386.16538 -28.82927,-16.64457 a 0.7486,0.7486 0 0 0 -1.12289,0.6483 v 33.28913 a 0.74859,0.74859 0 0 0 1.12289,0.6483 l 28.82927,-16.64456 a 0.74859,0.74859 0 0 0 0,-1.2966 l -28.82927,-16.64457 a 0.7486,0.7486 0 0 0 -1.12289,0.6483 v 33.28913 a 0.74859,0.74859 0 0 0 1.12289,0.6483 l 28.82927,-16.64456 a 0.74859,0.74859 0 0 0 0,-1.2966 z"
     fill="#ffffff"
     id="path112" />
  <path
     d="m 853.92021,529.03 a 15.34,15.34 0 0 1 -15.25958,15.42 H 167.26021 a 15.34,15.34 0 0 1 -15.26,-15.41962 V 70.42 A 15.34,15.34 0 0 1 167.25978,55 h 671.40043 a 15.34,15.34 0 0 1 15.26,15.41959 v 4.3e-4 z"
     fill="#e6e6e6"
     id="path114"
     style="fill:#51e58d;fill-opacity:0.756216" />
  <path
     d="m 846.00021,521.52 a 14.91,14.91 0 0 1 -14.91,14.91 h -655.8 a 14.91,14.91 0 0 1 -14.91,-14.91 V 78.14 a 14.91,14.91 0 0 1 14.91,-14.91 h 655.83 a 14.91,14.91 0 0 1 14.88,14.91 z"
     fill="#ffffff"
     id="path116"
     style="display:inline" />
  <path
     id="a7242049-80b4-49e1-bd08-67354734c824-69"
     data-name="c6fe725a-3b03-4a96-90af-cfbd2676500a"
     d="m 195.43019,82.47999 h 616.22 a 8.85,8.85 0 0 1 8.85,8.85 v 415.28 a 8.85,8.85 0 0 1 -8.85,8.85 h -616.22 a 8.85,8.85 0 0 1 -8.85,-8.85 v -415.28 a 8.85,8.85 0 0 1 8.85,-8.85 z"
     fill="#e6e6e6"
     style="display:inline;fill:#51e58d;fill-opacity:0.705986" />
  <path
     d="m 203.2302,92.43999 h 599.95 a 8.85,8.85 0 0 1 8.85,8.85 v 393.12 a 8.85,8.85 0 0 1 -8.85,8.85 h -599.95 a 8.85,8.85 0 0 1 -8.85,-8.85 v -393.12 a 8.85,8.85 0 0 1 8.85,-8.85 z"
     fill="#ffffff"
     id="path119"
     style="display:inline" />
  <path
     d="m 626.83593,365.5328 a 16.86941,16.86941 0 0 1 -6.85316,-1.46024 8.31363,8.31363 0 0 1 -1.42861,-0.81184 L 574.9523,332.56914 v 0 a 16.86934,16.86934 0 0 1 -7.15892,-13.79065 v -41.85695 a 16.86933,16.86933 0 0 1 7.1589,-13.79066 l 43.60186,-30.69158 a 8.31367,8.31367 0 0 1 1.42862,-0.81183 16.86929,16.86929 0 0 1 23.72245,15.41432 v 101.61644 a 16.8693,16.8693 0 0 1 -16.8693,16.8693 z"
     fill="#3f3d56"
     id="path121" />
  <path
     d="m 529.25501,373.76185 h -121.6078 c -24.81022,-0.0203 -44.91651,-16.0578 -44.942,-35.84726 v -80.12917 c 0.0255,-19.78946 20.13179,-35.82692 44.942,-35.84726 h 121.925 c 24.63351,0.0232 44.59564,15.94572 44.62477,35.59423 v 80.3822 c -0.0255,19.78946 -20.13177,35.82693 -44.94197,35.84726 z"
     fill="#3f3d56"
     id="path123" />
  <circle
     cx="745.87946"
     cy="441.81369"
     r="36.16732"
     fill="#e6e6e6"
     id="circle125"
     style="fill:#51e58d;fill-opacity:0.698313" />
  <path
     d="m 764.66467,441.16538 -28.82923,-16.64457 a 0.7486,0.7486 0 0 0 -1.12289,0.6483 v 33.28913 a 0.74859,0.74859 0 0 0 1.12289,0.6483 L 764.66467,442.462 a 0.74859,0.74859 0 0 0 0,-1.2966 l -28.82923,-16.64457 a 0.7486,0.7486 0 0 0 -1.12289,0.6483 v 33.28913 a 0.74859,0.74859 0 0 0 1.12289,0.6483 L 764.66467,442.462 a 0.74859,0.74859 0 0 0 0,-1.29662 z"
     fill="#ffffff"
     id="path127" />
  <path
     d="m 684.25501,318.76185 h -121.6078 c -24.81022,-0.0203 -44.91651,-16.0578 -44.942,-35.84726 v -80.12917 c 0.0255,-19.78946 20.13179,-35.82692 44.942,-35.84726 h 121.925 c 24.63351,0.0232 44.59564,15.94572 44.62477,35.59423 v 80.3822 c -0.0255,19.78946 -20.13177,35.82693 -44.94197,35.84726 z"
     fill="#3f3d56"
     id="path108"
     style="display:none;fill:#51e58d;fill-opacity:0.411765" />
  <path
     d="m 701.92021,592.03 a 15.34,15.34 0 0 1 -15.25958,15.42 H 15.26021 A 15.34,15.34 0 0 1 2.0970173e-4,592.03038 V 133.42 A 15.34,15.34 0 0 1 15.25978,118 h 671.40043 a 15.34,15.34 0 0 1 15.26,15.41959 v 4.3e-4 z"
     fill="#e6e6e6"
     id="path129"
     style="fill:#51e58d;fill-opacity:0.600142" />
  <path
     d="m 694.00021,584.52 a 14.91,14.91 0 0 1 -14.91,14.91 h -655.8 A 14.91,14.91 0 0 1 8.3802097,584.52 V 141.14 A 14.91,14.91 0 0 1 23.29021,126.23 h 655.83 a 14.91,14.91 0 0 1 14.88,14.91 z"
     fill="#ffffff"
     id="path131" />
  <path
     id="b7a050eb-0cb2-44a8-b642-35d340850eff-70"
     data-name="c6fe725a-3b03-4a96-90af-cfbd2676500a"
     d="m 43.43019,145.47999 h 616.22 a 8.85,8.85 0 0 1 8.85,8.85 v 415.28 a 8.85,8.85 0 0 1 -8.85,8.85 h -616.22 a 8.85,8.85 0 0 1 -8.85,-8.85 v -415.28 a 8.85,8.85 0 0 1 8.85,-8.85 z"
     fill="#e6e6e6"
     style="fill:#51e58d;fill-opacity:0.413095" />
  <path
     d="m 51.2302,155.43999 h 599.95 a 8.85,8.85 0 0 1 8.85,8.85 v 393.12 a 8.85,8.85 0 0 1 -8.85,8.85 h -599.95 a 8.85,8.85 0 0 1 -8.85,-8.85 v -393.12 a 8.85,8.85 0 0 1 8.85,-8.85 z"
     fill="#ffffff"
     id="path134" />
  <path
     d="m 474.83593,428.5328 a 16.86941,16.86941 0 0 1 -6.85316,-1.46024 8.31363,8.31363 0 0 1 -1.42861,-0.81184 L 422.9523,395.56914 v 0 a 16.86934,16.86934 0 0 1 -7.15892,-13.79065 v -41.85695 a 16.86933,16.86933 0 0 1 7.1589,-13.79066 l 43.60186,-30.69158 a 8.31367,8.31367 0 0 1 1.42862,-0.81183 16.86929,16.86929 0 0 1 23.72245,15.41432 v 101.61644 a 16.8693,16.8693 0 0 1 -16.8693,16.8693 z"
     fill="#6c63ff"
     id="path136"
     style="fill:#51e58d;fill-opacity:1" />
  <path
     d="m 377.25501,436.76185 h -121.6078 c -24.81022,-0.0203 -44.91651,-16.0578 -44.942,-35.84726 v -80.12917 c 0.0255,-19.78946 20.13179,-35.82692 44.942,-35.84726 h 121.925 c 24.63351,0.0232 44.59564,15.94572 44.62477,35.59423 v 80.3822 c -0.0255,19.78946 -20.13177,35.82693 -44.94197,35.84726 z"
     fill="#6c63ff"
     id="path138"
     style="fill:#51e58d;fill-opacity:1" />
  <circle
     cx="593.87946"
     cy="504.81369"
     r="36.16732"
     fill="#3f3d56"
     id="circle140"
     style="fill:#51e58d;fill-opacity:1" />
  <path
     d="m 612.66467,504.16538 -28.82923,-16.64457 a 0.7486,0.7486 0 0 0 -1.12289,0.6483 v 33.28913 a 0.74859,0.74859 0 0 0 1.12289,0.6483 L 612.66467,505.462 a 0.74859,0.74859 0 0 0 0,-1.2966 l -28.82923,-16.64457 a 0.7486,0.7486 0 0 0 -1.12289,0.6483 v 33.28913 a 0.74859,0.74859 0 0 0 1.12289,0.6483 L 612.66467,505.462 a 0.74859,0.74859 0 0 0 0,-1.29662 z"
     fill="#ffffff"
     id="path142" />
  <path
     d="m 781.83593,310.5328 a 16.86941,16.86941 0 0 1 -6.85316,-1.46024 8.31363,8.31363 0 0 1 -1.42861,-0.81184 L 729.9523,277.56914 v 0 a 16.86934,16.86934 0 0 1 -7.15892,-13.79065 v -41.85695 a 16.86933,16.86933 0 0 1 7.1589,-13.79066 l 43.60186,-30.69158 a 8.31367,8.31367 0 0 1 1.42862,-0.81183 16.86929,16.86929 0 0 1 23.72245,15.41432 v 101.61644 a 16.8693,16.8693 0 0 1 -16.8693,16.8693 z"
     fill="#3f3d56"
     id="path106"
     style="display:none;fill:#51e58d;fill-opacity:0.411765" />
</svg>
